<?xml version="1.0" standalone="no"?>
<!DOCTYPE svg PUBLIC "-//W3C//DTD SVG 20010904//EN"
 "http://www.w3.org/TR/2001/REC-SVG-20010904/DTD/svg10.dtd">
<svg version="1.0" xmlns="http://www.w3.org/2000/svg"
 width="474.000000pt" height="611.000000pt" viewBox="0 0 474.000000 611.000000"
 preserveAspectRatio="xMidYMid meet">
<metadata>
Created by potrace 1.16, written by Peter Selinger 2001-2019
</metadata>
<g transform="translate(0.000000,611.000000) scale(0.100000,-0.100000)"
fill="#000000" stroke="none">
<path d="M3172 6020 c-51 -22 -143 -93 -201 -156 -80 -88 -126 -157 -164 -252
-17 -42 -33 -79 -34 -81 -2 -3 -22 13 -46 36 -99 94 -182 123 -382 130 -123 4
-168 1 -246 -14 l-97 -19 -26 130 c-14 71 -30 134 -34 138 -12 12 -174 38
-232 38 -38 0 -62 -10 -145 -61 -120 -72 -271 -186 -339 -252 l-49 -49 6 -71
c6 -84 23 -140 79 -259 l40 -86 -35 -59 c-117 -195 -288 -637 -438 -1132 -108
-356 -143 -514 -219 -976 -17 -104 -40 -244 -51 -310 -11 -66 -22 -152 -26
-191 l-6 -70 39 -38 c111 -106 498 -294 971 -471 298 -112 345 -137 410 -222
85 -112 272 -289 380 -360 38 -26 54 -43 59 -67 15 -71 58 -125 101 -126 12 0
35 -8 51 -17 25 -14 33 -15 61 -3 45 18 64 60 59 130 -5 69 -39 140 -110 233
-29 38 -63 82 -74 97 -12 16 -31 73 -44 127 -29 131 -59 194 -102 221 -36 22
-181 52 -252 52 -25 0 -63 10 -93 25 -64 32 -201 168 -304 301 -44 56 -96 116
-116 134 -61 54 -167 119 -296 181 -159 76 -172 86 -164 132 14 88 158 334
286 490 157 190 411 554 494 707 25 47 52 108 58 135 7 28 14 51 14 52 1 2 39
-5 86 -13 97 -19 245 -14 322 10 80 26 206 97 264 150 46 42 54 46 48 26 -5
-14 -11 -38 -15 -55 -4 -16 -11 -39 -16 -49 -9 -23 -6 -22 96 52 91 67 145
116 172 160 11 19 24 30 28 25 4 -4 15 -58 23 -120 16 -110 16 -112 -9 -222
-54 -240 -95 -350 -204 -556 -125 -234 -362 -708 -418 -835 -57 -128 -102
-278 -128 -417 -16 -89 -16 -93 3 -125 23 -41 105 -98 343 -240 242 -145 367
-229 487 -326 54 -43 143 -112 198 -153 98 -72 435 -350 527 -434 57 -53 64
-84 54 -265 -15 -293 -45 -383 -143 -430 -69 -34 -83 -47 -83 -82 0 -50 69
-98 122 -85 12 4 28 1 35 -5 18 -14 54 -21 133 -23 36 -1 75 -7 85 -13 34 -18
111 -25 147 -13 32 11 101 81 128 131 10 19 13 66 11 188 -2 158 -1 164 24
220 41 86 75 192 75 229 0 61 -28 108 -106 178 -42 37 -101 87 -132 110 -31
23 -104 84 -161 136 -104 93 -200 213 -401 501 -73 104 -253 291 -348 361 -35
26 -123 79 -195 119 -73 40 -140 82 -149 93 -35 41 -41 30 203 350 37 50 101
133 141 185 97 127 295 363 399 476 160 173 231 293 276 467 41 159 -25 465
-164 767 -93 201 -203 406 -267 500 -101 146 -99 131 -32 198 103 103 138 207
140 414 1 137 16 118 -159 207 -123 63 -181 79 -223 61z m-1443 -375 l31 -90
-26 -22 c-15 -14 -38 -23 -58 -23 -53 0 -119 -24 -184 -69 -33 -22 -63 -41
-66 -41 -3 0 -10 18 -16 41 -11 39 -10 42 26 85 45 56 246 226 255 216 3 -4
20 -47 38 -97z m1496 -28 c-28 -84 -85 -199 -98 -194 -7 2 -45 15 -84 28 -40
13 -73 26 -73 29 -1 17 127 138 190 180 67 44 75 47 78 29 2 -11 -4 -43 -13
-72z m-699 17 c61 -18 127 -57 181 -107 l43 -39 -6 -97 c-6 -80 -3 -109 14
-171 25 -90 86 -238 117 -283 19 -28 23 -52 28 -153 3 -65 9 -146 13 -180 9
-82 -18 -136 -109 -223 -45 -42 -97 -77 -97 -64 1 4 7 35 16 68 20 84 30 387
15 500 -14 108 -37 195 -53 195 -7 0 -8 -11 -4 -32 12 -56 26 -191 26 -246 l0
-53 -62 48 c-83 63 -173 155 -202 207 -14 22 -34 75 -46 116 -13 41 -27 79
-31 84 -16 18 -9 -71 10 -133 19 -61 19 -62 0 -56 -67 22 -153 90 -202 162
-23 35 -37 42 -37 20 0 -16 49 -95 75 -120 15 -16 17 -29 11 -97 -6 -74 -35
-187 -55 -218 -13 -20 -97 72 -152 168 -56 95 -74 174 -72 307 1 51 -2 95 -7
98 -15 9 -24 -58 -23 -174 2 -108 0 -117 -31 -185 -33 -74 -85 -176 -89 -176
-1 0 0 52 2 115 4 126 -4 198 -20 174 -5 -8 -9 -57 -9 -109 0 -137 -40 -390
-61 -390 -22 0 -90 106 -111 173 -23 78 -30 219 -15 332 11 84 -9 60 -29 -36
-34 -160 0 -340 86 -455 l50 -65 0 -115 0 -115 -42 53 c-97 121 -112 142 -153
221 -48 90 -63 138 -66 210 -2 33 -7 47 -17 47 -12 0 -14 -13 -9 -75 4 -41 14
-91 22 -111 8 -20 15 -62 15 -93 -1 -55 -1 -56 -16 -29 -8 15 -22 62 -30 105
-32 152 5 361 98 553 45 94 60 114 152 205 146 144 275 211 481 250 96 17 327
12 401 -11z m622 -267 c131 -78 191 -142 296 -312 31 -49 60 -95 65 -102 18
-20 138 -265 186 -376 101 -238 146 -414 146 -576 0 -92 -4 -118 -30 -195 -17
-49 -42 -109 -57 -133 -22 -38 -144 -197 -163 -213 -17 -14 -185 -205 -238
-270 -34 -41 -76 -91 -94 -110 -18 -19 -32 -36 -31 -38 2 -1 -30 -45 -70 -97
-40 -53 -100 -131 -133 -175 -33 -44 -93 -122 -133 -174 -91 -120 -137 -212
-128 -261 9 -45 21 -44 36 0 6 19 14 35 16 35 3 0 17 -8 32 -19 15 -10 59 -36
97 -58 236 -135 244 -141 400 -297 103 -104 198 -224 188 -239 -3 -5 -2 -7 4
-4 5 3 18 -8 28 -26 10 -18 65 -94 122 -170 59 -79 100 -144 97 -150 -4 -7 -3
-9 1 -4 5 4 38 -21 74 -56 84 -79 198 -179 219 -191 9 -5 26 -18 36 -28 11
-10 23 -18 28 -18 15 0 133 -112 151 -143 9 -17 17 -47 17 -65 0 -40 -32 -136
-68 -205 -26 -50 -27 -59 -28 -212 -1 -88 -2 -169 -3 -180 0 -11 -22 -48 -47
-82 -37 -50 -53 -64 -81 -69 -44 -8 -52 0 -25 29 12 13 22 29 22 35 0 24 -30
11 -52 -22 -20 -28 -27 -32 -46 -25 -24 9 -23 18 6 51 13 16 13 18 -3 24 -13
5 -24 0 -37 -17 -10 -13 -23 -30 -28 -36 -16 -19 -90 -17 -90 2 0 23 46 65 70
65 11 0 20 7 20 15 0 10 -10 15 -31 15 -23 0 -41 -10 -65 -36 -19 -19 -34 -40
-34 -45 0 -5 -7 -9 -15 -9 -19 0 -20 39 0 66 8 12 28 24 45 27 44 9 40 37 -5
37 -43 0 -82 -35 -91 -80 -5 -24 -12 -30 -32 -30 -30 0 -62 26 -62 50 0 12 15
24 43 35 50 20 102 67 127 116 28 53 40 140 53 373 l12 211 -55 51 c-30 29
-75 69 -100 89 -80 66 -143 119 -199 168 -30 26 -98 81 -151 122 -494 385
-457 359 -835 583 -311 185 -301 175 -281 292 21 118 65 278 99 360 32 77 330
676 460 926 43 82 90 189 111 255 59 184 144 583 132 615 -11 27 -25 13 -32
-31 -9 -61 -20 -64 -28 -7 -3 26 -11 70 -16 97 -17 86 -28 211 -41 486 -13
277 -10 343 15 403 l15 36 68 -26 c37 -14 92 -40 121 -57z m-1810 -239 c7 -13
20 -38 31 -56 19 -32 18 -34 -2 -110 -14 -55 -20 -109 -20 -192 -1 -100 3
-125 27 -194 35 -103 77 -189 88 -178 4 4 11 36 14 71 l7 64 15 -29 c26 -53
205 -284 219 -284 10 0 13 18 13 73 l0 72 19 -30 c31 -49 83 -100 132 -129
l47 -27 -13 -42 c-19 -61 -34 -92 -91 -187 -114 -191 -316 -475 -480 -675 -83
-101 -176 -246 -231 -361 -41 -84 -48 -107 -47 -155 1 -33 9 -72 20 -95 20
-41 41 -45 36 -6 -3 27 1 27 35 5 14 -10 49 -27 77 -38 78 -32 235 -128 294
-180 66 -59 166 -191 156 -206 -4 -7 -3 -9 3 -6 5 4 41 -26 79 -66 38 -40 97
-95 132 -124 68 -56 85 -62 257 -84 116 -14 167 -36 188 -80 8 -19 28 -84 43
-144 29 -121 41 -150 74 -180 33 -30 108 -139 135 -197 33 -70 34 -150 3 -172
-39 -28 -56 -5 -88 116 -8 31 -18 48 -28 48 -12 0 -13 -9 -8 -50 4 -28 5 -50
2 -50 -2 0 -13 20 -25 44 -14 31 -37 56 -76 83 -85 57 -181 137 -266 218 -87
83 -169 177 -169 193 0 19 -64 65 -140 100 -41 18 -165 67 -275 107 -392 142
-790 328 -919 428 l-39 31 6 77 c4 42 18 146 32 230 14 85 34 213 46 284 45
280 109 594 151 740 146 505 330 1014 450 1247 33 65 64 118 68 118 4 0 12
-10 18 -22z m1073 -158 c10 0 19 -4 19 -9 0 -19 142 -159 212 -210 l75 -53 -5
-92 c-5 -96 -25 -161 -66 -223 -57 -83 -236 -181 -375 -205 -98 -17 -252 0
-325 36 -123 60 -194 164 -204 296 l-5 70 65 0 c83 0 151 32 156 72 4 35 -38
58 -118 65 l-57 6 54 89 c29 49 64 114 76 144 l23 55 38 -74 c42 -84 130 -195
171 -217 25 -13 28 -13 46 10 29 38 60 146 66 231 l6 76 64 -33 c35 -19 73
-34 84 -34z"/>
<path d="M2325 4745 c-60 -16 -100 -56 -85 -85 24 -44 167 -53 245 -15 73 36
53 84 -43 104 -62 13 -54 13 -117 -4z"/>
<path d="M2011 4369 c-48 -9 -66 -19 -34 -19 11 0 26 -7 34 -16 25 -31 72 -46
136 -46 58 0 70 4 129 42 35 23 64 44 64 46 0 8 -286 2 -329 -7z"/>
</g>
</svg>
